<mxfile host="Electron" modified="2024-05-06T20:12:02.532Z" agent="Mozilla/5.0 (Macintosh; Intel Mac OS X 10_15_7) AppleWebKit/537.36 (KHTML, like Gecko) draw.io/21.5.0 Chrome/112.0.5615.204 Electron/24.5.1 Safari/537.36" etag="r3zrst4TZiViJNYFciYy" version="21.5.0" type="device" pages="8">
  <diagram name="mvp-1" id="Iu1mIeB9ceA5Ahkq2No5">
    <mxGraphModel dx="1242" dy="819" grid="1" gridSize="10" guides="1" tooltips="1" connect="1" arrows="1" fold="1" page="1" pageScale="1" pageWidth="850" pageHeight="1100" math="0" shadow="0">
      <root>
        <mxCell id="0" />
        <mxCell id="1" parent="0" />
        <mxCell id="j7GpYIzhaSZf0-OvEuIJ-1" value="Fetch&lt;br&gt;Unit" style="rounded=0;whiteSpace=wrap;html=1;sketch=1;curveFitting=1;jiggle=2;fontSize=22;fillColor=#dae8fc;strokeColor=#6c8ebf;fillStyle=solid;" parent="1" vertex="1">
          <mxGeometry x="240" y="160" width="120" height="60" as="geometry" />
        </mxCell>
        <mxCell id="j7GpYIzhaSZf0-OvEuIJ-2" value="Decode&lt;br&gt;Unit" style="rounded=0;whiteSpace=wrap;html=1;sketch=1;curveFitting=1;jiggle=2;fontSize=22;fillColor=#fff2cc;strokeColor=#d6b656;fillStyle=solid;" parent="1" vertex="1">
          <mxGeometry x="240" y="260" width="120" height="60" as="geometry" />
        </mxCell>
        <mxCell id="j7GpYIzhaSZf0-OvEuIJ-3" value="" style="endArrow=classic;html=1;rounded=0;exitX=0.5;exitY=1;exitDx=0;exitDy=0;sketch=1;curveFitting=1;jiggle=2;" parent="1" source="j7GpYIzhaSZf0-OvEuIJ-1" target="j7GpYIzhaSZf0-OvEuIJ-2" edge="1">
          <mxGeometry width="50" height="50" relative="1" as="geometry">
            <mxPoint x="400" y="450" as="sourcePoint" />
            <mxPoint x="450" y="400" as="targetPoint" />
          </mxGeometry>
        </mxCell>
        <mxCell id="j7GpYIzhaSZf0-OvEuIJ-4" value="Execute&lt;br&gt;Unit" style="rounded=0;whiteSpace=wrap;html=1;sketch=1;curveFitting=1;jiggle=2;fontSize=22;fillColor=#f8cecc;strokeColor=#b85450;fillStyle=solid;" parent="1" vertex="1">
          <mxGeometry x="240" y="360" width="120" height="60" as="geometry" />
        </mxCell>
        <mxCell id="j7GpYIzhaSZf0-OvEuIJ-5" value="Write&lt;br&gt;Unit" style="rounded=0;whiteSpace=wrap;html=1;sketch=1;curveFitting=1;jiggle=2;fontSize=22;fillStyle=solid;fillColor=#d5e8d4;strokeColor=#82b366;" parent="1" vertex="1">
          <mxGeometry x="240" y="460" width="120" height="60" as="geometry" />
        </mxCell>
        <mxCell id="j7GpYIzhaSZf0-OvEuIJ-6" value="" style="endArrow=classic;html=1;rounded=0;sketch=1;curveFitting=1;jiggle=2;entryX=0.5;entryY=0;entryDx=0;entryDy=0;" parent="1" target="j7GpYIzhaSZf0-OvEuIJ-4" edge="1">
          <mxGeometry width="50" height="50" relative="1" as="geometry">
            <mxPoint x="300" y="320" as="sourcePoint" />
            <mxPoint x="310" y="270" as="targetPoint" />
          </mxGeometry>
        </mxCell>
        <mxCell id="j7GpYIzhaSZf0-OvEuIJ-7" value="" style="endArrow=classic;html=1;rounded=0;sketch=1;curveFitting=1;jiggle=2;entryX=0.5;entryY=0;entryDx=0;entryDy=0;exitX=0.5;exitY=1;exitDx=0;exitDy=0;" parent="1" source="j7GpYIzhaSZf0-OvEuIJ-4" target="j7GpYIzhaSZf0-OvEuIJ-5" edge="1">
          <mxGeometry width="50" height="50" relative="1" as="geometry">
            <mxPoint x="310" y="330" as="sourcePoint" />
            <mxPoint x="310" y="370" as="targetPoint" />
          </mxGeometry>
        </mxCell>
      </root>
    </mxGraphModel>
  </diagram>
  <diagram id="uA20YbdWBRl09KtCNt2N" name="mvp-2">
    <mxGraphModel dx="1242" dy="819" grid="1" gridSize="10" guides="1" tooltips="1" connect="1" arrows="1" fold="1" page="1" pageScale="1" pageWidth="850" pageHeight="1100" math="0" shadow="0">
      <root>
        <mxCell id="0" />
        <mxCell id="1" parent="0" />
        <mxCell id="kS_1S3uA9MmibY_gHwAL-1" value="Fetch&lt;br&gt;Unit" style="rounded=0;whiteSpace=wrap;html=1;sketch=1;curveFitting=1;jiggle=2;fontSize=22;fillStyle=solid;fillColor=#dae8fc;strokeColor=#6c8ebf;" parent="1" vertex="1">
          <mxGeometry x="240" y="160" width="120" height="60" as="geometry" />
        </mxCell>
        <mxCell id="kS_1S3uA9MmibY_gHwAL-2" value="Decode&lt;br&gt;Unit" style="rounded=0;whiteSpace=wrap;html=1;sketch=1;curveFitting=1;jiggle=2;fontSize=22;fillStyle=solid;fillColor=#fff2cc;strokeColor=#d6b656;" parent="1" vertex="1">
          <mxGeometry x="240" y="260" width="120" height="60" as="geometry" />
        </mxCell>
        <mxCell id="kS_1S3uA9MmibY_gHwAL-3" value="" style="endArrow=classic;html=1;rounded=0;exitX=0.5;exitY=1;exitDx=0;exitDy=0;sketch=1;curveFitting=1;jiggle=2;" parent="1" source="kS_1S3uA9MmibY_gHwAL-1" target="kS_1S3uA9MmibY_gHwAL-2" edge="1">
          <mxGeometry width="50" height="50" relative="1" as="geometry">
            <mxPoint x="400" y="450" as="sourcePoint" />
            <mxPoint x="450" y="400" as="targetPoint" />
          </mxGeometry>
        </mxCell>
        <mxCell id="kS_1S3uA9MmibY_gHwAL-4" value="Execute&lt;br&gt;Unit" style="rounded=0;whiteSpace=wrap;html=1;sketch=1;curveFitting=1;jiggle=2;fontSize=22;fillStyle=solid;fillColor=#f8cecc;strokeColor=#b85450;" parent="1" vertex="1">
          <mxGeometry x="240" y="360" width="120" height="60" as="geometry" />
        </mxCell>
        <mxCell id="kS_1S3uA9MmibY_gHwAL-5" value="Write&lt;br&gt;Unit" style="rounded=0;whiteSpace=wrap;html=1;sketch=1;curveFitting=1;jiggle=2;fontSize=22;fillStyle=solid;fillColor=#d5e8d4;strokeColor=#82b366;" parent="1" vertex="1">
          <mxGeometry x="240" y="460" width="120" height="60" as="geometry" />
        </mxCell>
        <mxCell id="kS_1S3uA9MmibY_gHwAL-6" value="" style="endArrow=classic;html=1;rounded=0;sketch=1;curveFitting=1;jiggle=2;entryX=0.5;entryY=0;entryDx=0;entryDy=0;" parent="1" target="kS_1S3uA9MmibY_gHwAL-4" edge="1">
          <mxGeometry width="50" height="50" relative="1" as="geometry">
            <mxPoint x="300" y="320" as="sourcePoint" />
            <mxPoint x="310" y="270" as="targetPoint" />
          </mxGeometry>
        </mxCell>
        <mxCell id="kS_1S3uA9MmibY_gHwAL-7" value="" style="endArrow=classic;html=1;rounded=0;sketch=1;curveFitting=1;jiggle=2;entryX=0.5;entryY=0;entryDx=0;entryDy=0;exitX=0.5;exitY=1;exitDx=0;exitDy=0;" parent="1" source="kS_1S3uA9MmibY_gHwAL-4" target="kS_1S3uA9MmibY_gHwAL-5" edge="1">
          <mxGeometry width="50" height="50" relative="1" as="geometry">
            <mxPoint x="310" y="330" as="sourcePoint" />
            <mxPoint x="310" y="370" as="targetPoint" />
          </mxGeometry>
        </mxCell>
        <mxCell id="kS_1S3uA9MmibY_gHwAL-8" value="L1i" style="rounded=0;whiteSpace=wrap;html=1;sketch=1;curveFitting=1;jiggle=2;fontSize=22;fillStyle=solid;fillColor=#f5f5f5;fontColor=#333333;strokeColor=#666666;" parent="1" vertex="1">
          <mxGeometry x="80" y="160" width="120" height="60" as="geometry" />
        </mxCell>
        <mxCell id="kS_1S3uA9MmibY_gHwAL-9" value="" style="endArrow=classic;html=1;rounded=0;exitX=0;exitY=0.5;exitDx=0;exitDy=0;sketch=1;curveFitting=1;jiggle=2;entryX=1;entryY=0.5;entryDx=0;entryDy=0;" parent="1" source="kS_1S3uA9MmibY_gHwAL-1" target="kS_1S3uA9MmibY_gHwAL-8" edge="1">
          <mxGeometry width="50" height="50" relative="1" as="geometry">
            <mxPoint x="310" y="230" as="sourcePoint" />
            <mxPoint x="310" y="270" as="targetPoint" />
          </mxGeometry>
        </mxCell>
      </root>
    </mxGraphModel>
  </diagram>
  <diagram id="R75-aX5IEO0EQZSeQtbe" name="mvp-3">
    <mxGraphModel dx="2092" dy="819" grid="1" gridSize="10" guides="1" tooltips="1" connect="1" arrows="1" fold="1" page="1" pageScale="1" pageWidth="850" pageHeight="1100" math="0" shadow="0">
      <root>
        <mxCell id="0" />
        <mxCell id="1" parent="0" />
        <mxCell id="RD6Ad35JeKmYo84jdllm-1" value="Fetch&lt;br&gt;Unit" style="rounded=0;whiteSpace=wrap;html=1;sketch=1;curveFitting=1;jiggle=2;fontSize=22;fillColor=#dae8fc;strokeColor=#6c8ebf;fillStyle=solid;" parent="1" vertex="1">
          <mxGeometry x="240" y="160" width="120" height="60" as="geometry" />
        </mxCell>
        <mxCell id="RD6Ad35JeKmYo84jdllm-2" value="Decode&lt;br&gt;Unit" style="rounded=0;whiteSpace=wrap;html=1;sketch=1;curveFitting=1;jiggle=2;fontSize=22;fillColor=#fff2cc;strokeColor=#d6b656;fillStyle=solid;" parent="1" vertex="1">
          <mxGeometry x="240" y="260" width="120" height="60" as="geometry" />
        </mxCell>
        <mxCell id="RD6Ad35JeKmYo84jdllm-3" value="" style="endArrow=classic;html=1;rounded=0;exitX=0.5;exitY=1;exitDx=0;exitDy=0;sketch=1;curveFitting=1;jiggle=2;" parent="1" source="RD6Ad35JeKmYo84jdllm-1" target="RD6Ad35JeKmYo84jdllm-2" edge="1">
          <mxGeometry width="50" height="50" relative="1" as="geometry">
            <mxPoint x="400" y="450" as="sourcePoint" />
            <mxPoint x="450" y="400" as="targetPoint" />
          </mxGeometry>
        </mxCell>
        <mxCell id="RD6Ad35JeKmYo84jdllm-4" value="Execute&lt;br&gt;Unit" style="rounded=0;whiteSpace=wrap;html=1;sketch=1;curveFitting=1;jiggle=2;fontSize=22;fillStyle=solid;fillColor=#f8cecc;strokeColor=#b85450;" parent="1" vertex="1">
          <mxGeometry x="240" y="360" width="120" height="60" as="geometry" />
        </mxCell>
        <mxCell id="RD6Ad35JeKmYo84jdllm-5" value="Write&lt;br&gt;Unit" style="rounded=0;whiteSpace=wrap;html=1;sketch=1;curveFitting=1;jiggle=2;fontSize=22;fillStyle=solid;fillColor=#d5e8d4;strokeColor=#82b366;" parent="1" vertex="1">
          <mxGeometry x="240" y="460" width="120" height="60" as="geometry" />
        </mxCell>
        <mxCell id="RD6Ad35JeKmYo84jdllm-6" value="" style="endArrow=classic;html=1;rounded=0;sketch=1;curveFitting=1;jiggle=2;entryX=0.5;entryY=0;entryDx=0;entryDy=0;" parent="1" target="RD6Ad35JeKmYo84jdllm-4" edge="1">
          <mxGeometry width="50" height="50" relative="1" as="geometry">
            <mxPoint x="300" y="320" as="sourcePoint" />
            <mxPoint x="310" y="270" as="targetPoint" />
          </mxGeometry>
        </mxCell>
        <mxCell id="RD6Ad35JeKmYo84jdllm-7" value="" style="endArrow=classic;html=1;rounded=0;sketch=1;curveFitting=1;jiggle=2;entryX=0.5;entryY=0;entryDx=0;entryDy=0;exitX=0.5;exitY=1;exitDx=0;exitDy=0;" parent="1" source="RD6Ad35JeKmYo84jdllm-4" target="RD6Ad35JeKmYo84jdllm-5" edge="1">
          <mxGeometry width="50" height="50" relative="1" as="geometry">
            <mxPoint x="310" y="330" as="sourcePoint" />
            <mxPoint x="310" y="370" as="targetPoint" />
          </mxGeometry>
        </mxCell>
        <mxCell id="RD6Ad35JeKmYo84jdllm-9" value="" style="endArrow=classic;html=1;rounded=0;exitX=0;exitY=0.5;exitDx=0;exitDy=0;sketch=1;curveFitting=1;jiggle=2;entryX=1;entryY=0.5;entryDx=0;entryDy=0;" parent="1" source="RD6Ad35JeKmYo84jdllm-1" edge="1">
          <mxGeometry width="50" height="50" relative="1" as="geometry">
            <mxPoint x="310" y="230" as="sourcePoint" />
            <mxPoint x="200" y="190" as="targetPoint" />
          </mxGeometry>
        </mxCell>
        <mxCell id="cF3XdFn3WEcUJj94mfXF-1" value="Memory Management Unit" style="rounded=0;whiteSpace=wrap;html=1;sketch=1;curveFitting=1;jiggle=2;fontSize=22;fillStyle=solid;fillColor=#f5f5f5;fontColor=#333333;strokeColor=#666666;verticalAlign=top;" parent="1" vertex="1">
          <mxGeometry x="-100" y="230" width="290" height="130" as="geometry" />
        </mxCell>
        <mxCell id="cF3XdFn3WEcUJj94mfXF-2" value="L1i" style="rounded=0;whiteSpace=wrap;html=1;sketch=1;curveFitting=1;jiggle=2;fontSize=22;fillStyle=solid;" parent="1" vertex="1">
          <mxGeometry x="-80" y="280" width="120" height="60" as="geometry" />
        </mxCell>
        <mxCell id="cF3XdFn3WEcUJj94mfXF-3" value="L1d" style="rounded=0;whiteSpace=wrap;html=1;sketch=1;curveFitting=1;jiggle=2;fontSize=22;fillStyle=solid;" parent="1" vertex="1">
          <mxGeometry x="50" y="280" width="120" height="60" as="geometry" />
        </mxCell>
        <mxCell id="UR0SRNm3RZNIKlO4JOvR-1" value="" style="endArrow=classic;html=1;rounded=0;exitX=0;exitY=0.5;exitDx=0;exitDy=0;sketch=1;curveFitting=1;jiggle=2;entryX=0.5;entryY=0;entryDx=0;entryDy=0;edgeStyle=orthogonalEdgeStyle;" parent="1" target="cF3XdFn3WEcUJj94mfXF-1" edge="1">
          <mxGeometry width="50" height="50" relative="1" as="geometry">
            <mxPoint x="240" y="190" as="sourcePoint" />
            <mxPoint x="30" y="270" as="targetPoint" />
          </mxGeometry>
        </mxCell>
        <mxCell id="UR0SRNm3RZNIKlO4JOvR-2" value="" style="endArrow=classic;html=1;rounded=0;exitX=0;exitY=0.5;exitDx=0;exitDy=0;sketch=1;curveFitting=1;jiggle=2;entryX=0.5;entryY=1;entryDx=0;entryDy=0;edgeStyle=orthogonalEdgeStyle;" parent="1" source="RD6Ad35JeKmYo84jdllm-4" target="cF3XdFn3WEcUJj94mfXF-1" edge="1">
          <mxGeometry width="50" height="50" relative="1" as="geometry">
            <mxPoint x="160" y="524.5" as="sourcePoint" />
            <mxPoint x="30" y="400" as="targetPoint" />
          </mxGeometry>
        </mxCell>
      </root>
    </mxGraphModel>
  </diagram>
  <diagram id="rKLimcS50NjxE2TUYBvg" name="mvp-4">
    <mxGraphModel dx="2092" dy="819" grid="1" gridSize="10" guides="1" tooltips="1" connect="1" arrows="1" fold="1" page="1" pageScale="1" pageWidth="850" pageHeight="1100" math="0" shadow="0">
      <root>
        <mxCell id="0" />
        <mxCell id="1" parent="0" />
        <mxCell id="kedU4bcP5aWZ6iq1lNZX-1" value="Fetch&lt;br&gt;Unit" style="rounded=0;whiteSpace=wrap;html=1;sketch=1;curveFitting=1;jiggle=2;fontSize=22;fillStyle=solid;fillColor=#dae8fc;strokeColor=#6c8ebf;" parent="1" vertex="1">
          <mxGeometry x="240" y="160" width="120" height="60" as="geometry" />
        </mxCell>
        <mxCell id="kedU4bcP5aWZ6iq1lNZX-2" value="Decode&lt;br&gt;Unit" style="rounded=0;whiteSpace=wrap;html=1;sketch=1;curveFitting=1;jiggle=2;fontSize=22;fillStyle=solid;fillColor=#fff2cc;strokeColor=#d6b656;" parent="1" vertex="1">
          <mxGeometry x="240" y="260" width="120" height="60" as="geometry" />
        </mxCell>
        <mxCell id="kedU4bcP5aWZ6iq1lNZX-3" value="" style="endArrow=classic;html=1;rounded=0;exitX=0.5;exitY=1;exitDx=0;exitDy=0;sketch=1;curveFitting=1;jiggle=2;" parent="1" source="kedU4bcP5aWZ6iq1lNZX-1" target="kedU4bcP5aWZ6iq1lNZX-2" edge="1">
          <mxGeometry width="50" height="50" relative="1" as="geometry">
            <mxPoint x="400" y="450" as="sourcePoint" />
            <mxPoint x="450" y="400" as="targetPoint" />
          </mxGeometry>
        </mxCell>
        <mxCell id="kedU4bcP5aWZ6iq1lNZX-4" value="Execute&lt;br&gt;Unit" style="rounded=0;whiteSpace=wrap;html=1;sketch=1;curveFitting=1;jiggle=2;fontSize=22;fillStyle=solid;fillColor=#f8cecc;strokeColor=#b85450;" parent="1" vertex="1">
          <mxGeometry x="240" y="360" width="120" height="60" as="geometry" />
        </mxCell>
        <mxCell id="kedU4bcP5aWZ6iq1lNZX-5" value="Write&lt;br&gt;Unit" style="rounded=0;whiteSpace=wrap;html=1;sketch=1;curveFitting=1;jiggle=2;fontSize=22;fillStyle=solid;fillColor=#d5e8d4;strokeColor=#82b366;" parent="1" vertex="1">
          <mxGeometry x="240" y="460" width="120" height="60" as="geometry" />
        </mxCell>
        <mxCell id="kedU4bcP5aWZ6iq1lNZX-6" value="" style="endArrow=classic;html=1;rounded=0;sketch=1;curveFitting=1;jiggle=2;entryX=0.5;entryY=0;entryDx=0;entryDy=0;" parent="1" target="kedU4bcP5aWZ6iq1lNZX-4" edge="1">
          <mxGeometry width="50" height="50" relative="1" as="geometry">
            <mxPoint x="300" y="320" as="sourcePoint" />
            <mxPoint x="310" y="270" as="targetPoint" />
          </mxGeometry>
        </mxCell>
        <mxCell id="kedU4bcP5aWZ6iq1lNZX-7" value="" style="endArrow=classic;html=1;rounded=0;sketch=1;curveFitting=1;jiggle=2;entryX=0.5;entryY=0;entryDx=0;entryDy=0;exitX=0.5;exitY=1;exitDx=0;exitDy=0;" parent="1" source="kedU4bcP5aWZ6iq1lNZX-4" target="kedU4bcP5aWZ6iq1lNZX-5" edge="1">
          <mxGeometry width="50" height="50" relative="1" as="geometry">
            <mxPoint x="310" y="330" as="sourcePoint" />
            <mxPoint x="310" y="370" as="targetPoint" />
          </mxGeometry>
        </mxCell>
        <mxCell id="kedU4bcP5aWZ6iq1lNZX-11" value="" style="endArrow=classic;html=1;rounded=0;sketch=1;curveFitting=1;jiggle=2;entryX=0;entryY=0.5;entryDx=0;entryDy=0;exitX=1;exitY=0.5;exitDx=0;exitDy=0;edgeStyle=orthogonalEdgeStyle;" parent="1" source="kedU4bcP5aWZ6iq1lNZX-4" target="THfjgKAzAlu4px0769Dd-1" edge="1">
          <mxGeometry width="50" height="50" relative="1" as="geometry">
            <mxPoint x="310" y="430" as="sourcePoint" />
            <mxPoint x="510" y="360" as="targetPoint" />
          </mxGeometry>
        </mxCell>
        <mxCell id="OtdD9eu-S13lePiRJ1y_-2" value="Memory Management Unit" style="rounded=0;whiteSpace=wrap;html=1;sketch=1;curveFitting=1;jiggle=2;fontSize=22;fillStyle=solid;fillColor=#f5f5f5;fontColor=#333333;strokeColor=#666666;verticalAlign=top;" parent="1" vertex="1">
          <mxGeometry x="-100" y="230" width="290" height="130" as="geometry" />
        </mxCell>
        <mxCell id="OtdD9eu-S13lePiRJ1y_-3" value="L1i" style="rounded=0;whiteSpace=wrap;html=1;sketch=1;curveFitting=1;jiggle=2;fontSize=22;fillStyle=solid;" parent="1" vertex="1">
          <mxGeometry x="-80" y="280" width="120" height="60" as="geometry" />
        </mxCell>
        <mxCell id="OtdD9eu-S13lePiRJ1y_-4" value="L1d" style="rounded=0;whiteSpace=wrap;html=1;sketch=1;curveFitting=1;jiggle=2;fontSize=22;fillStyle=solid;" parent="1" vertex="1">
          <mxGeometry x="50" y="280" width="120" height="60" as="geometry" />
        </mxCell>
        <mxCell id="OtdD9eu-S13lePiRJ1y_-5" value="" style="endArrow=classic;html=1;rounded=0;exitX=0;exitY=0.5;exitDx=0;exitDy=0;sketch=1;curveFitting=1;jiggle=2;entryX=0.5;entryY=0;entryDx=0;entryDy=0;edgeStyle=orthogonalEdgeStyle;" parent="1" target="OtdD9eu-S13lePiRJ1y_-2" edge="1">
          <mxGeometry width="50" height="50" relative="1" as="geometry">
            <mxPoint x="240" y="190" as="sourcePoint" />
            <mxPoint x="30" y="270" as="targetPoint" />
          </mxGeometry>
        </mxCell>
        <mxCell id="OtdD9eu-S13lePiRJ1y_-6" value="" style="endArrow=classic;html=1;rounded=0;exitX=0;exitY=0.5;exitDx=0;exitDy=0;sketch=1;curveFitting=1;jiggle=2;entryX=0.5;entryY=1;entryDx=0;entryDy=0;edgeStyle=orthogonalEdgeStyle;" parent="1" target="OtdD9eu-S13lePiRJ1y_-2" edge="1">
          <mxGeometry width="50" height="50" relative="1" as="geometry">
            <mxPoint x="240" y="390" as="sourcePoint" />
            <mxPoint x="30" y="400" as="targetPoint" />
          </mxGeometry>
        </mxCell>
        <mxCell id="THfjgKAzAlu4px0769Dd-1" value="Branch&lt;br&gt;Unit" style="rounded=0;whiteSpace=wrap;html=1;sketch=1;curveFitting=1;jiggle=2;fontSize=22;fillStyle=solid;fillColor=#e1d5e7;strokeColor=#9673a6;" parent="1" vertex="1">
          <mxGeometry x="410" y="360" width="120" height="60" as="geometry" />
        </mxCell>
      </root>
    </mxGraphModel>
  </diagram>
  <diagram id="o6tW7KQesYAS819tmkF4" name="mvp-5">
    <mxGraphModel dx="2069" dy="819" grid="1" gridSize="10" guides="1" tooltips="1" connect="1" arrows="1" fold="1" page="1" pageScale="1" pageWidth="827" pageHeight="1169" math="0" shadow="0">
      <root>
        <mxCell id="0" />
        <mxCell id="1" parent="0" />
        <mxCell id="o8IJdF6473P2lBcYNafF-1" value="Fetch&lt;br&gt;Unit" style="rounded=0;whiteSpace=wrap;html=1;sketch=1;curveFitting=1;jiggle=2;fontSize=22;fillStyle=solid;fillColor=#dae8fc;strokeColor=#6c8ebf;" parent="1" vertex="1">
          <mxGeometry x="240" y="160" width="120" height="60" as="geometry" />
        </mxCell>
        <mxCell id="o8IJdF6473P2lBcYNafF-2" value="Decode&lt;br&gt;Unit" style="rounded=0;whiteSpace=wrap;html=1;sketch=1;curveFitting=1;jiggle=2;fontSize=22;fillStyle=solid;fillColor=#fff2cc;strokeColor=#d6b656;" parent="1" vertex="1">
          <mxGeometry x="240" y="260" width="120" height="60" as="geometry" />
        </mxCell>
        <mxCell id="o8IJdF6473P2lBcYNafF-3" value="" style="endArrow=classic;html=1;rounded=0;exitX=0.5;exitY=1;exitDx=0;exitDy=0;sketch=1;curveFitting=1;jiggle=2;" parent="1" source="o8IJdF6473P2lBcYNafF-1" target="o8IJdF6473P2lBcYNafF-2" edge="1">
          <mxGeometry width="50" height="50" relative="1" as="geometry">
            <mxPoint x="400" y="450" as="sourcePoint" />
            <mxPoint x="450" y="400" as="targetPoint" />
          </mxGeometry>
        </mxCell>
        <mxCell id="o8IJdF6473P2lBcYNafF-5" value="Write&lt;br&gt;Unit" style="rounded=0;whiteSpace=wrap;html=1;sketch=1;curveFitting=1;jiggle=2;fontSize=22;fillStyle=solid;fillColor=#d5e8d4;strokeColor=#82b366;" parent="1" vertex="1">
          <mxGeometry x="240" y="560" width="120" height="60" as="geometry" />
        </mxCell>
        <mxCell id="o8IJdF6473P2lBcYNafF-6" value="" style="endArrow=classic;html=1;rounded=0;sketch=1;curveFitting=1;jiggle=2;entryX=0.5;entryY=0;entryDx=0;entryDy=0;" parent="1" target="o8IJdF6473P2lBcYNafF-18" edge="1">
          <mxGeometry width="50" height="50" relative="1" as="geometry">
            <mxPoint x="300" y="320" as="sourcePoint" />
            <mxPoint x="310" y="270" as="targetPoint" />
          </mxGeometry>
        </mxCell>
        <mxCell id="o8IJdF6473P2lBcYNafF-7" value="" style="endArrow=classic;html=1;rounded=0;sketch=1;curveFitting=1;jiggle=2;entryX=0.5;entryY=0;entryDx=0;entryDy=0;exitX=0.5;exitY=1;exitDx=0;exitDy=0;" parent="1" source="9K8pihRpss82WbuMdPXc-1" target="o8IJdF6473P2lBcYNafF-5" edge="1">
          <mxGeometry width="50" height="50" relative="1" as="geometry">
            <mxPoint x="300" y="584.5" as="sourcePoint" />
            <mxPoint x="310" y="460" as="targetPoint" />
          </mxGeometry>
        </mxCell>
        <mxCell id="o8IJdF6473P2lBcYNafF-10" value="Branch&lt;br&gt;Unit" style="rounded=0;whiteSpace=wrap;html=1;sketch=1;curveFitting=1;jiggle=2;fontSize=22;verticalAlign=top;fillStyle=solid;fillColor=#e1d5e7;strokeColor=#9673a6;" parent="1" vertex="1">
          <mxGeometry x="430" y="220" width="160" height="140" as="geometry" />
        </mxCell>
        <mxCell id="o8IJdF6473P2lBcYNafF-11" value="" style="endArrow=classic;html=1;rounded=0;sketch=1;curveFitting=1;jiggle=2;entryX=0.5;entryY=1;entryDx=0;entryDy=0;exitX=1;exitY=0.5;exitDx=0;exitDy=0;edgeStyle=orthogonalEdgeStyle;" parent="1" source="9K8pihRpss82WbuMdPXc-1" target="o8IJdF6473P2lBcYNafF-10" edge="1">
          <mxGeometry width="50" height="50" relative="1" as="geometry">
            <mxPoint x="440" y="524.5" as="sourcePoint" />
            <mxPoint x="310" y="470" as="targetPoint" />
          </mxGeometry>
        </mxCell>
        <mxCell id="o8IJdF6473P2lBcYNafF-12" value="BTB" style="rounded=0;whiteSpace=wrap;html=1;sketch=1;curveFitting=1;jiggle=2;fontSize=22;fillStyle=solid;" parent="1" vertex="1">
          <mxGeometry x="450" y="290" width="120" height="60" as="geometry" />
        </mxCell>
        <mxCell id="o8IJdF6473P2lBcYNafF-13" value="" style="endArrow=classic;html=1;rounded=0;sketch=1;curveFitting=1;jiggle=2;entryX=1;entryY=0.5;entryDx=0;entryDy=0;exitX=0.5;exitY=0;exitDx=0;exitDy=0;edgeStyle=orthogonalEdgeStyle;" parent="1" source="o8IJdF6473P2lBcYNafF-10" target="o8IJdF6473P2lBcYNafF-1" edge="1">
          <mxGeometry width="50" height="50" relative="1" as="geometry">
            <mxPoint x="370" y="400" as="sourcePoint" />
            <mxPoint x="520" y="370" as="targetPoint" />
          </mxGeometry>
        </mxCell>
        <mxCell id="o8IJdF6473P2lBcYNafF-14" value="" style="endArrow=classic;html=1;rounded=0;sketch=1;curveFitting=1;jiggle=2;exitX=0;exitY=0.5;exitDx=0;exitDy=0;edgeStyle=orthogonalEdgeStyle;" parent="1" source="o8IJdF6473P2lBcYNafF-10" target="o8IJdF6473P2lBcYNafF-2" edge="1">
          <mxGeometry width="50" height="50" relative="1" as="geometry">
            <mxPoint x="520" y="227" as="sourcePoint" />
            <mxPoint x="370" y="200" as="targetPoint" />
          </mxGeometry>
        </mxCell>
        <mxCell id="o8IJdF6473P2lBcYNafF-18" value="Control&lt;br&gt;Unit" style="rounded=0;whiteSpace=wrap;html=1;sketch=1;curveFitting=1;jiggle=2;fontSize=22;fillStyle=solid;fillColor=#FF99FF;strokeColor=#FF33FF;" parent="1" vertex="1">
          <mxGeometry x="240" y="360" width="120" height="60" as="geometry" />
        </mxCell>
        <mxCell id="o8IJdF6473P2lBcYNafF-19" value="" style="endArrow=classic;html=1;rounded=0;sketch=1;curveFitting=1;jiggle=2;entryX=0.5;entryY=0;entryDx=0;entryDy=0;exitX=0.5;exitY=1;exitDx=0;exitDy=0;" parent="1" source="o8IJdF6473P2lBcYNafF-18" target="9K8pihRpss82WbuMdPXc-1" edge="1">
          <mxGeometry width="50" height="50" relative="1" as="geometry">
            <mxPoint x="310" y="330" as="sourcePoint" />
            <mxPoint x="300" y="464.5" as="targetPoint" />
          </mxGeometry>
        </mxCell>
        <mxCell id="6JM_vKK2AOutE_PSGbl4-1" value="Memory Management Unit" style="rounded=0;whiteSpace=wrap;html=1;sketch=1;curveFitting=1;jiggle=2;fontSize=22;fillStyle=solid;fillColor=#f5f5f5;fontColor=#333333;strokeColor=#666666;verticalAlign=top;" parent="1" vertex="1">
          <mxGeometry x="-100" y="280" width="290" height="130" as="geometry" />
        </mxCell>
        <mxCell id="6JM_vKK2AOutE_PSGbl4-2" value="L1i" style="rounded=0;whiteSpace=wrap;html=1;sketch=1;curveFitting=1;jiggle=2;fontSize=22;fillStyle=solid;" parent="1" vertex="1">
          <mxGeometry x="-80" y="330" width="120" height="60" as="geometry" />
        </mxCell>
        <mxCell id="6JM_vKK2AOutE_PSGbl4-3" value="L1d" style="rounded=0;whiteSpace=wrap;html=1;sketch=1;curveFitting=1;jiggle=2;fontSize=22;fillStyle=solid;" parent="1" vertex="1">
          <mxGeometry x="50" y="330" width="120" height="60" as="geometry" />
        </mxCell>
        <mxCell id="hJHkKbxqN5W8ZSLgK7fd-1" value="" style="endArrow=classic;html=1;rounded=0;exitX=0;exitY=0.5;exitDx=0;exitDy=0;sketch=1;curveFitting=1;jiggle=2;entryX=0.5;entryY=0;entryDx=0;entryDy=0;edgeStyle=orthogonalEdgeStyle;" parent="1" target="6JM_vKK2AOutE_PSGbl4-1" edge="1">
          <mxGeometry width="50" height="50" relative="1" as="geometry">
            <mxPoint x="240" y="190" as="sourcePoint" />
            <mxPoint x="45" y="230" as="targetPoint" />
          </mxGeometry>
        </mxCell>
        <mxCell id="hJHkKbxqN5W8ZSLgK7fd-2" value="" style="endArrow=classic;html=1;rounded=0;exitX=0;exitY=0.5;exitDx=0;exitDy=0;sketch=1;curveFitting=1;jiggle=2;entryX=0.5;entryY=1;entryDx=0;entryDy=0;edgeStyle=orthogonalEdgeStyle;" parent="1" source="9K8pihRpss82WbuMdPXc-1" target="6JM_vKK2AOutE_PSGbl4-1" edge="1">
          <mxGeometry width="50" height="50" relative="1" as="geometry">
            <mxPoint x="240" y="390" as="sourcePoint" />
            <mxPoint x="45" y="360" as="targetPoint" />
            <Array as="points">
              <mxPoint x="45" y="490" />
            </Array>
          </mxGeometry>
        </mxCell>
        <mxCell id="9K8pihRpss82WbuMdPXc-1" value="Execute&lt;br&gt;Unit" style="rounded=0;whiteSpace=wrap;html=1;sketch=1;curveFitting=1;jiggle=2;fontSize=22;fillStyle=solid;fillColor=#f8cecc;strokeColor=#b85450;" parent="1" vertex="1">
          <mxGeometry x="240" y="460" width="120" height="60" as="geometry" />
        </mxCell>
      </root>
    </mxGraphModel>
  </diagram>
  <diagram id="OnVezSspcB16VlgrMDXR" name="mvp-6">
    <mxGraphModel dx="2069" dy="819" grid="1" gridSize="10" guides="1" tooltips="1" connect="1" arrows="1" fold="1" page="1" pageScale="1" pageWidth="827" pageHeight="1169" math="0" shadow="0">
      <root>
        <mxCell id="0" />
        <mxCell id="1" parent="0" />
        <mxCell id="I6SzG3jBJ19MrlEGVIa--19" value="Memory Management Unit" style="rounded=0;whiteSpace=wrap;html=1;sketch=1;curveFitting=1;jiggle=2;fontSize=22;fillStyle=solid;fillColor=#f5f5f5;fontColor=#333333;strokeColor=#666666;verticalAlign=top;" parent="1" vertex="1">
          <mxGeometry x="-115" y="270" width="290" height="130" as="geometry" />
        </mxCell>
        <mxCell id="I6SzG3jBJ19MrlEGVIa--1" value="Fetch&lt;br&gt;Unit" style="rounded=0;whiteSpace=wrap;html=1;sketch=1;curveFitting=1;jiggle=2;fontSize=22;fillStyle=solid;fillColor=#dae8fc;strokeColor=#6c8ebf;" parent="1" vertex="1">
          <mxGeometry x="240" y="160" width="120" height="60" as="geometry" />
        </mxCell>
        <mxCell id="I6SzG3jBJ19MrlEGVIa--2" value="Decode&lt;br&gt;Unit" style="rounded=0;whiteSpace=wrap;html=1;sketch=1;curveFitting=1;jiggle=2;fontSize=22;fillStyle=solid;fillColor=#fff2cc;strokeColor=#d6b656;" parent="1" vertex="1">
          <mxGeometry x="240" y="260" width="120" height="60" as="geometry" />
        </mxCell>
        <mxCell id="I6SzG3jBJ19MrlEGVIa--3" value="" style="endArrow=classic;html=1;rounded=0;exitX=0.5;exitY=1;exitDx=0;exitDy=0;sketch=1;curveFitting=1;jiggle=2;" parent="1" source="I6SzG3jBJ19MrlEGVIa--1" target="I6SzG3jBJ19MrlEGVIa--2" edge="1">
          <mxGeometry width="50" height="50" relative="1" as="geometry">
            <mxPoint x="400" y="450" as="sourcePoint" />
            <mxPoint x="450" y="400" as="targetPoint" />
          </mxGeometry>
        </mxCell>
        <mxCell id="I6SzG3jBJ19MrlEGVIa--4" value="Execute Unit" style="rounded=0;whiteSpace=wrap;html=1;sketch=1;curveFitting=1;jiggle=2;fontSize=22;verticalAlign=top;fillStyle=solid;fillColor=#f8cecc;strokeColor=#b85450;" parent="1" vertex="1">
          <mxGeometry x="160" y="464.5" width="280" height="120" as="geometry" />
        </mxCell>
        <mxCell id="I6SzG3jBJ19MrlEGVIa--5" value="Write&lt;br&gt;Unit" style="rounded=0;whiteSpace=wrap;html=1;sketch=1;curveFitting=1;jiggle=2;fontSize=22;fillStyle=solid;fillColor=#d5e8d4;strokeColor=#82b366;" parent="1" vertex="1">
          <mxGeometry x="240" y="630" width="120" height="60" as="geometry" />
        </mxCell>
        <mxCell id="I6SzG3jBJ19MrlEGVIa--6" value="" style="endArrow=classic;html=1;rounded=0;sketch=1;curveFitting=1;jiggle=2;entryX=0.5;entryY=0;entryDx=0;entryDy=0;" parent="1" target="I6SzG3jBJ19MrlEGVIa--17" edge="1">
          <mxGeometry width="50" height="50" relative="1" as="geometry">
            <mxPoint x="300" y="320" as="sourcePoint" />
            <mxPoint x="310" y="270" as="targetPoint" />
          </mxGeometry>
        </mxCell>
        <mxCell id="I6SzG3jBJ19MrlEGVIa--7" value="" style="endArrow=classic;html=1;rounded=0;sketch=1;curveFitting=1;jiggle=2;entryX=0.5;entryY=0;entryDx=0;entryDy=0;exitX=0.5;exitY=1;exitDx=0;exitDy=0;" parent="1" source="I6SzG3jBJ19MrlEGVIa--4" target="I6SzG3jBJ19MrlEGVIa--5" edge="1">
          <mxGeometry width="50" height="50" relative="1" as="geometry">
            <mxPoint x="310" y="420" as="sourcePoint" />
            <mxPoint x="310" y="460" as="targetPoint" />
          </mxGeometry>
        </mxCell>
        <mxCell id="I6SzG3jBJ19MrlEGVIa--8" value="L1i" style="rounded=0;whiteSpace=wrap;html=1;sketch=1;curveFitting=1;jiggle=2;fontSize=22;fillStyle=solid;" parent="1" vertex="1">
          <mxGeometry x="-95" y="320" width="120" height="60" as="geometry" />
        </mxCell>
        <mxCell id="I6SzG3jBJ19MrlEGVIa--9" value="" style="endArrow=classic;html=1;rounded=0;exitX=0;exitY=0.5;exitDx=0;exitDy=0;sketch=1;curveFitting=1;jiggle=2;entryX=0.5;entryY=0;entryDx=0;entryDy=0;edgeStyle=orthogonalEdgeStyle;" parent="1" source="I6SzG3jBJ19MrlEGVIa--1" target="I6SzG3jBJ19MrlEGVIa--19" edge="1">
          <mxGeometry width="50" height="50" relative="1" as="geometry">
            <mxPoint x="310" y="230" as="sourcePoint" />
            <mxPoint x="310" y="270" as="targetPoint" />
          </mxGeometry>
        </mxCell>
        <mxCell id="I6SzG3jBJ19MrlEGVIa--10" value="Branch&lt;br&gt;Unit" style="rounded=0;whiteSpace=wrap;html=1;sketch=1;curveFitting=1;jiggle=2;fontSize=22;verticalAlign=top;fillStyle=solid;fillColor=#e1d5e7;strokeColor=#9673a6;" parent="1" vertex="1">
          <mxGeometry x="430" y="220" width="160" height="140" as="geometry" />
        </mxCell>
        <mxCell id="I6SzG3jBJ19MrlEGVIa--11" value="" style="endArrow=classic;html=1;rounded=0;sketch=1;curveFitting=1;jiggle=2;entryX=0.5;entryY=1;entryDx=0;entryDy=0;exitX=1;exitY=0.5;exitDx=0;exitDy=0;edgeStyle=orthogonalEdgeStyle;" parent="1" source="I6SzG3jBJ19MrlEGVIa--4" target="I6SzG3jBJ19MrlEGVIa--10" edge="1">
          <mxGeometry width="50" height="50" relative="1" as="geometry">
            <mxPoint x="310" y="430" as="sourcePoint" />
            <mxPoint x="310" y="470" as="targetPoint" />
          </mxGeometry>
        </mxCell>
        <mxCell id="I6SzG3jBJ19MrlEGVIa--12" value="BTB" style="rounded=0;whiteSpace=wrap;html=1;sketch=1;curveFitting=1;jiggle=2;fontSize=22;fillStyle=solid;" parent="1" vertex="1">
          <mxGeometry x="450" y="290" width="120" height="60" as="geometry" />
        </mxCell>
        <mxCell id="I6SzG3jBJ19MrlEGVIa--13" value="" style="endArrow=classic;html=1;rounded=0;sketch=1;curveFitting=1;jiggle=2;entryX=1;entryY=0.5;entryDx=0;entryDy=0;exitX=0.5;exitY=0;exitDx=0;exitDy=0;edgeStyle=orthogonalEdgeStyle;" parent="1" source="I6SzG3jBJ19MrlEGVIa--10" target="I6SzG3jBJ19MrlEGVIa--1" edge="1">
          <mxGeometry width="50" height="50" relative="1" as="geometry">
            <mxPoint x="370" y="400" as="sourcePoint" />
            <mxPoint x="520" y="370" as="targetPoint" />
          </mxGeometry>
        </mxCell>
        <mxCell id="I6SzG3jBJ19MrlEGVIa--14" value="" style="endArrow=classic;html=1;rounded=0;sketch=1;curveFitting=1;jiggle=2;exitX=0;exitY=0.5;exitDx=0;exitDy=0;edgeStyle=orthogonalEdgeStyle;" parent="1" source="I6SzG3jBJ19MrlEGVIa--10" target="I6SzG3jBJ19MrlEGVIa--2" edge="1">
          <mxGeometry width="50" height="50" relative="1" as="geometry">
            <mxPoint x="520" y="227" as="sourcePoint" />
            <mxPoint x="370" y="200" as="targetPoint" />
          </mxGeometry>
        </mxCell>
        <mxCell id="I6SzG3jBJ19MrlEGVIa--15" value="EU #1" style="rounded=0;whiteSpace=wrap;html=1;sketch=1;curveFitting=1;jiggle=2;fontSize=22;fillStyle=solid;" parent="1" vertex="1">
          <mxGeometry x="175" y="504.5" width="120" height="60" as="geometry" />
        </mxCell>
        <mxCell id="I6SzG3jBJ19MrlEGVIa--16" value="EU #2" style="rounded=0;whiteSpace=wrap;html=1;sketch=1;curveFitting=1;jiggle=2;fontSize=22;fillStyle=solid;" parent="1" vertex="1">
          <mxGeometry x="305" y="504.5" width="120" height="60" as="geometry" />
        </mxCell>
        <mxCell id="I6SzG3jBJ19MrlEGVIa--17" value="Control&lt;br&gt;Unit" style="rounded=0;whiteSpace=wrap;html=1;sketch=1;curveFitting=1;jiggle=2;fontSize=22;fillStyle=solid;fillColor=#FF99FF;strokeColor=#FF33FF;" parent="1" vertex="1">
          <mxGeometry x="240" y="360" width="120" height="60" as="geometry" />
        </mxCell>
        <mxCell id="I6SzG3jBJ19MrlEGVIa--18" value="" style="endArrow=classic;html=1;rounded=0;sketch=1;curveFitting=1;jiggle=2;entryX=0.5;entryY=0;entryDx=0;entryDy=0;exitX=0.5;exitY=1;exitDx=0;exitDy=0;" parent="1" source="I6SzG3jBJ19MrlEGVIa--17" target="I6SzG3jBJ19MrlEGVIa--4" edge="1">
          <mxGeometry width="50" height="50" relative="1" as="geometry">
            <mxPoint x="310" y="330" as="sourcePoint" />
            <mxPoint x="310" y="370" as="targetPoint" />
          </mxGeometry>
        </mxCell>
        <mxCell id="I6SzG3jBJ19MrlEGVIa--20" value="L3" style="rounded=0;whiteSpace=wrap;html=1;sketch=1;curveFitting=1;jiggle=2;fontSize=22;fillStyle=solid;" parent="1" vertex="1">
          <mxGeometry x="35" y="320" width="120" height="60" as="geometry" />
        </mxCell>
        <mxCell id="I6SzG3jBJ19MrlEGVIa--21" value="" style="endArrow=classic;html=1;rounded=0;exitX=0;exitY=0.5;exitDx=0;exitDy=0;sketch=1;curveFitting=1;jiggle=2;entryX=0.5;entryY=1;entryDx=0;entryDy=0;edgeStyle=orthogonalEdgeStyle;" parent="1" source="I6SzG3jBJ19MrlEGVIa--4" target="I6SzG3jBJ19MrlEGVIa--19" edge="1">
          <mxGeometry width="50" height="50" relative="1" as="geometry">
            <mxPoint x="250" y="200" as="sourcePoint" />
            <mxPoint x="100" y="360" as="targetPoint" />
          </mxGeometry>
        </mxCell>
      </root>
    </mxGraphModel>
  </diagram>
  <diagram id="CNPc1I8rZjd6NZcdpl3x" name="Page-7">
    <mxGraphModel dx="2092" dy="819" grid="1" gridSize="10" guides="1" tooltips="1" connect="1" arrows="1" fold="1" page="1" pageScale="1" pageWidth="850" pageHeight="1100" math="0" shadow="0">
      <root>
        <mxCell id="0" />
        <mxCell id="1" parent="0" />
        <mxCell id="9zZYxtK-lsj6Ie8gxRV4-1" value="Memory Management Unit" style="rounded=0;whiteSpace=wrap;html=1;sketch=1;curveFitting=1;jiggle=2;fontSize=22;fillStyle=solid;fillColor=#f5f5f5;fontColor=#333333;strokeColor=#666666;verticalAlign=top;" vertex="1" parent="1">
          <mxGeometry x="-115" y="270" width="290" height="180" as="geometry" />
        </mxCell>
        <mxCell id="9zZYxtK-lsj6Ie8gxRV4-2" value="Fetch&lt;br&gt;Unit" style="rounded=0;whiteSpace=wrap;html=1;sketch=1;curveFitting=1;jiggle=2;fontSize=22;fillStyle=solid;fillColor=#dae8fc;strokeColor=#6c8ebf;" vertex="1" parent="1">
          <mxGeometry x="240" y="160" width="120" height="60" as="geometry" />
        </mxCell>
        <mxCell id="9zZYxtK-lsj6Ie8gxRV4-3" value="Decode&lt;br&gt;Unit" style="rounded=0;whiteSpace=wrap;html=1;sketch=1;curveFitting=1;jiggle=2;fontSize=22;fillStyle=solid;fillColor=#fff2cc;strokeColor=#d6b656;" vertex="1" parent="1">
          <mxGeometry x="240" y="260" width="120" height="60" as="geometry" />
        </mxCell>
        <mxCell id="9zZYxtK-lsj6Ie8gxRV4-4" value="" style="endArrow=classic;html=1;rounded=0;exitX=0.5;exitY=1;exitDx=0;exitDy=0;sketch=1;curveFitting=1;jiggle=2;" edge="1" parent="1" source="9zZYxtK-lsj6Ie8gxRV4-2" target="9zZYxtK-lsj6Ie8gxRV4-3">
          <mxGeometry width="50" height="50" relative="1" as="geometry">
            <mxPoint x="400" y="450" as="sourcePoint" />
            <mxPoint x="450" y="400" as="targetPoint" />
          </mxGeometry>
        </mxCell>
        <mxCell id="9zZYxtK-lsj6Ie8gxRV4-5" value="Execute Unit" style="rounded=0;whiteSpace=wrap;html=1;sketch=1;curveFitting=1;jiggle=2;fontSize=22;verticalAlign=top;fillStyle=solid;fillColor=#f8cecc;strokeColor=#b85450;" vertex="1" parent="1">
          <mxGeometry x="160" y="464.5" width="280" height="120" as="geometry" />
        </mxCell>
        <mxCell id="9zZYxtK-lsj6Ie8gxRV4-6" value="Write&lt;br&gt;Unit" style="rounded=0;whiteSpace=wrap;html=1;sketch=1;curveFitting=1;jiggle=2;fontSize=22;fillStyle=solid;fillColor=#d5e8d4;strokeColor=#82b366;" vertex="1" parent="1">
          <mxGeometry x="240" y="630" width="120" height="60" as="geometry" />
        </mxCell>
        <mxCell id="9zZYxtK-lsj6Ie8gxRV4-7" value="" style="endArrow=classic;html=1;rounded=0;sketch=1;curveFitting=1;jiggle=2;entryX=0.5;entryY=0;entryDx=0;entryDy=0;" edge="1" parent="1" target="9zZYxtK-lsj6Ie8gxRV4-18">
          <mxGeometry width="50" height="50" relative="1" as="geometry">
            <mxPoint x="300" y="320" as="sourcePoint" />
            <mxPoint x="310" y="270" as="targetPoint" />
          </mxGeometry>
        </mxCell>
        <mxCell id="9zZYxtK-lsj6Ie8gxRV4-8" value="" style="endArrow=classic;html=1;rounded=0;sketch=1;curveFitting=1;jiggle=2;entryX=0.5;entryY=0;entryDx=0;entryDy=0;exitX=0.5;exitY=1;exitDx=0;exitDy=0;" edge="1" parent="1" source="9zZYxtK-lsj6Ie8gxRV4-5" target="9zZYxtK-lsj6Ie8gxRV4-6">
          <mxGeometry width="50" height="50" relative="1" as="geometry">
            <mxPoint x="310" y="420" as="sourcePoint" />
            <mxPoint x="310" y="460" as="targetPoint" />
          </mxGeometry>
        </mxCell>
        <mxCell id="9zZYxtK-lsj6Ie8gxRV4-9" value="L1i" style="rounded=0;whiteSpace=wrap;html=1;sketch=1;curveFitting=1;jiggle=2;fontSize=22;fillStyle=solid;" vertex="1" parent="1">
          <mxGeometry x="-30" y="310" width="120" height="60" as="geometry" />
        </mxCell>
        <mxCell id="9zZYxtK-lsj6Ie8gxRV4-10" value="" style="endArrow=classic;html=1;rounded=0;exitX=0;exitY=0.5;exitDx=0;exitDy=0;sketch=1;curveFitting=1;jiggle=2;entryX=0.5;entryY=0;entryDx=0;entryDy=0;edgeStyle=orthogonalEdgeStyle;" edge="1" parent="1" source="9zZYxtK-lsj6Ie8gxRV4-2" target="9zZYxtK-lsj6Ie8gxRV4-1">
          <mxGeometry width="50" height="50" relative="1" as="geometry">
            <mxPoint x="310" y="230" as="sourcePoint" />
            <mxPoint x="310" y="270" as="targetPoint" />
          </mxGeometry>
        </mxCell>
        <mxCell id="9zZYxtK-lsj6Ie8gxRV4-11" value="Branch&lt;br&gt;Unit" style="rounded=0;whiteSpace=wrap;html=1;sketch=1;curveFitting=1;jiggle=2;fontSize=22;verticalAlign=top;fillStyle=solid;fillColor=#e1d5e7;strokeColor=#9673a6;" vertex="1" parent="1">
          <mxGeometry x="430" y="220" width="160" height="140" as="geometry" />
        </mxCell>
        <mxCell id="9zZYxtK-lsj6Ie8gxRV4-12" value="" style="endArrow=classic;html=1;rounded=0;sketch=1;curveFitting=1;jiggle=2;entryX=0.5;entryY=1;entryDx=0;entryDy=0;exitX=1;exitY=0.5;exitDx=0;exitDy=0;edgeStyle=orthogonalEdgeStyle;" edge="1" parent="1" source="9zZYxtK-lsj6Ie8gxRV4-5" target="9zZYxtK-lsj6Ie8gxRV4-11">
          <mxGeometry width="50" height="50" relative="1" as="geometry">
            <mxPoint x="310" y="430" as="sourcePoint" />
            <mxPoint x="310" y="470" as="targetPoint" />
          </mxGeometry>
        </mxCell>
        <mxCell id="9zZYxtK-lsj6Ie8gxRV4-13" value="BTB" style="rounded=0;whiteSpace=wrap;html=1;sketch=1;curveFitting=1;jiggle=2;fontSize=22;fillStyle=solid;" vertex="1" parent="1">
          <mxGeometry x="450" y="290" width="120" height="60" as="geometry" />
        </mxCell>
        <mxCell id="9zZYxtK-lsj6Ie8gxRV4-14" value="" style="endArrow=classic;html=1;rounded=0;sketch=1;curveFitting=1;jiggle=2;entryX=1;entryY=0.5;entryDx=0;entryDy=0;exitX=0.5;exitY=0;exitDx=0;exitDy=0;edgeStyle=orthogonalEdgeStyle;" edge="1" parent="1" source="9zZYxtK-lsj6Ie8gxRV4-11" target="9zZYxtK-lsj6Ie8gxRV4-2">
          <mxGeometry width="50" height="50" relative="1" as="geometry">
            <mxPoint x="370" y="400" as="sourcePoint" />
            <mxPoint x="520" y="370" as="targetPoint" />
          </mxGeometry>
        </mxCell>
        <mxCell id="9zZYxtK-lsj6Ie8gxRV4-15" value="" style="endArrow=classic;html=1;rounded=0;sketch=1;curveFitting=1;jiggle=2;exitX=0;exitY=0.5;exitDx=0;exitDy=0;edgeStyle=orthogonalEdgeStyle;" edge="1" parent="1" source="9zZYxtK-lsj6Ie8gxRV4-11" target="9zZYxtK-lsj6Ie8gxRV4-3">
          <mxGeometry width="50" height="50" relative="1" as="geometry">
            <mxPoint x="520" y="227" as="sourcePoint" />
            <mxPoint x="370" y="200" as="targetPoint" />
          </mxGeometry>
        </mxCell>
        <mxCell id="9zZYxtK-lsj6Ie8gxRV4-16" value="EU #1" style="rounded=0;whiteSpace=wrap;html=1;sketch=1;curveFitting=1;jiggle=2;fontSize=22;fillStyle=solid;" vertex="1" parent="1">
          <mxGeometry x="175" y="504.5" width="120" height="60" as="geometry" />
        </mxCell>
        <mxCell id="9zZYxtK-lsj6Ie8gxRV4-17" value="EU #2" style="rounded=0;whiteSpace=wrap;html=1;sketch=1;curveFitting=1;jiggle=2;fontSize=22;fillStyle=solid;" vertex="1" parent="1">
          <mxGeometry x="305" y="504.5" width="120" height="60" as="geometry" />
        </mxCell>
        <mxCell id="9zZYxtK-lsj6Ie8gxRV4-18" value="Control&lt;br&gt;Unit" style="rounded=0;whiteSpace=wrap;html=1;sketch=1;curveFitting=1;jiggle=2;fontSize=22;fillStyle=solid;fillColor=#FF99FF;strokeColor=#FF33FF;" vertex="1" parent="1">
          <mxGeometry x="240" y="360" width="120" height="60" as="geometry" />
        </mxCell>
        <mxCell id="9zZYxtK-lsj6Ie8gxRV4-19" value="" style="endArrow=classic;html=1;rounded=0;sketch=1;curveFitting=1;jiggle=2;entryX=0.5;entryY=0;entryDx=0;entryDy=0;exitX=0.5;exitY=1;exitDx=0;exitDy=0;" edge="1" parent="1" source="9zZYxtK-lsj6Ie8gxRV4-18" target="9zZYxtK-lsj6Ie8gxRV4-5">
          <mxGeometry width="50" height="50" relative="1" as="geometry">
            <mxPoint x="310" y="330" as="sourcePoint" />
            <mxPoint x="310" y="370" as="targetPoint" />
          </mxGeometry>
        </mxCell>
        <mxCell id="9zZYxtK-lsj6Ie8gxRV4-20" value="L1D #1" style="rounded=0;whiteSpace=wrap;html=1;sketch=1;curveFitting=1;jiggle=2;fontSize=22;fillStyle=solid;" vertex="1" parent="1">
          <mxGeometry x="-100" y="380" width="120" height="60" as="geometry" />
        </mxCell>
        <mxCell id="9zZYxtK-lsj6Ie8gxRV4-21" value="" style="endArrow=classic;html=1;rounded=0;exitX=0;exitY=0.5;exitDx=0;exitDy=0;sketch=1;curveFitting=1;jiggle=2;entryX=0.5;entryY=1;entryDx=0;entryDy=0;edgeStyle=orthogonalEdgeStyle;" edge="1" parent="1" source="9zZYxtK-lsj6Ie8gxRV4-5" target="9zZYxtK-lsj6Ie8gxRV4-1">
          <mxGeometry width="50" height="50" relative="1" as="geometry">
            <mxPoint x="250" y="200" as="sourcePoint" />
            <mxPoint x="100" y="360" as="targetPoint" />
          </mxGeometry>
        </mxCell>
        <mxCell id="9zZYxtK-lsj6Ie8gxRV4-22" value="L1D #2" style="rounded=0;whiteSpace=wrap;html=1;sketch=1;curveFitting=1;jiggle=2;fontSize=22;fillStyle=solid;" vertex="1" parent="1">
          <mxGeometry x="40" y="380" width="120" height="60" as="geometry" />
        </mxCell>
      </root>
    </mxGraphModel>
  </diagram>
  <diagram id="APtszo5z0VENOjocFTOy" name="Page-8">
    <mxGraphModel dx="2092" dy="819" grid="1" gridSize="10" guides="1" tooltips="1" connect="1" arrows="1" fold="1" page="1" pageScale="1" pageWidth="850" pageHeight="1100" math="0" shadow="0">
      <root>
        <mxCell id="0" />
        <mxCell id="1" parent="0" />
        <mxCell id="cudnkLG5wgGD3ugbKX4R-1" value="Memory Management Unit" style="rounded=0;whiteSpace=wrap;html=1;sketch=1;curveFitting=1;jiggle=2;fontSize=22;fillStyle=solid;fillColor=#f5f5f5;fontColor=#333333;strokeColor=#666666;verticalAlign=top;" vertex="1" parent="1">
          <mxGeometry x="-115" y="270" width="290" height="180" as="geometry" />
        </mxCell>
        <mxCell id="cudnkLG5wgGD3ugbKX4R-2" value="Fetch&lt;br&gt;Unit" style="rounded=0;whiteSpace=wrap;html=1;sketch=1;curveFitting=1;jiggle=2;fontSize=22;fillStyle=solid;fillColor=#dae8fc;strokeColor=#6c8ebf;" vertex="1" parent="1">
          <mxGeometry x="240" y="160" width="120" height="60" as="geometry" />
        </mxCell>
        <mxCell id="cudnkLG5wgGD3ugbKX4R-3" value="Decode&lt;br&gt;Unit" style="rounded=0;whiteSpace=wrap;html=1;sketch=1;curveFitting=1;jiggle=2;fontSize=22;fillStyle=solid;fillColor=#fff2cc;strokeColor=#d6b656;" vertex="1" parent="1">
          <mxGeometry x="240" y="260" width="120" height="60" as="geometry" />
        </mxCell>
        <mxCell id="cudnkLG5wgGD3ugbKX4R-4" value="" style="endArrow=classic;html=1;rounded=0;exitX=0.5;exitY=1;exitDx=0;exitDy=0;sketch=1;curveFitting=1;jiggle=2;" edge="1" parent="1" source="cudnkLG5wgGD3ugbKX4R-2" target="cudnkLG5wgGD3ugbKX4R-3">
          <mxGeometry width="50" height="50" relative="1" as="geometry">
            <mxPoint x="400" y="450" as="sourcePoint" />
            <mxPoint x="450" y="400" as="targetPoint" />
          </mxGeometry>
        </mxCell>
        <mxCell id="cudnkLG5wgGD3ugbKX4R-5" value="Execute Unit" style="rounded=0;whiteSpace=wrap;html=1;sketch=1;curveFitting=1;jiggle=2;fontSize=22;verticalAlign=top;fillStyle=solid;fillColor=#f8cecc;strokeColor=#b85450;" vertex="1" parent="1">
          <mxGeometry x="160" y="464.5" width="280" height="120" as="geometry" />
        </mxCell>
        <mxCell id="cudnkLG5wgGD3ugbKX4R-6" value="Write&lt;br&gt;Unit" style="rounded=0;whiteSpace=wrap;html=1;sketch=1;curveFitting=1;jiggle=2;fontSize=22;fillStyle=solid;fillColor=#d5e8d4;strokeColor=#82b366;" vertex="1" parent="1">
          <mxGeometry x="240" y="630" width="120" height="60" as="geometry" />
        </mxCell>
        <mxCell id="cudnkLG5wgGD3ugbKX4R-7" value="" style="endArrow=classic;html=1;rounded=0;sketch=1;curveFitting=1;jiggle=2;entryX=0.5;entryY=0;entryDx=0;entryDy=0;" edge="1" parent="1" target="cudnkLG5wgGD3ugbKX4R-18">
          <mxGeometry width="50" height="50" relative="1" as="geometry">
            <mxPoint x="300" y="320" as="sourcePoint" />
            <mxPoint x="310" y="270" as="targetPoint" />
          </mxGeometry>
        </mxCell>
        <mxCell id="cudnkLG5wgGD3ugbKX4R-8" value="" style="endArrow=classic;html=1;rounded=0;sketch=1;curveFitting=1;jiggle=2;entryX=0.5;entryY=0;entryDx=0;entryDy=0;exitX=0.5;exitY=1;exitDx=0;exitDy=0;" edge="1" parent="1" source="cudnkLG5wgGD3ugbKX4R-5" target="cudnkLG5wgGD3ugbKX4R-6">
          <mxGeometry width="50" height="50" relative="1" as="geometry">
            <mxPoint x="310" y="420" as="sourcePoint" />
            <mxPoint x="310" y="460" as="targetPoint" />
          </mxGeometry>
        </mxCell>
        <mxCell id="cudnkLG5wgGD3ugbKX4R-9" value="L1i" style="rounded=0;whiteSpace=wrap;html=1;sketch=1;curveFitting=1;jiggle=2;fontSize=22;fillStyle=solid;" vertex="1" parent="1">
          <mxGeometry x="-100" y="310" width="120" height="60" as="geometry" />
        </mxCell>
        <mxCell id="cudnkLG5wgGD3ugbKX4R-10" value="" style="endArrow=classic;html=1;rounded=0;exitX=0;exitY=0.5;exitDx=0;exitDy=0;sketch=1;curveFitting=1;jiggle=2;entryX=0.5;entryY=0;entryDx=0;entryDy=0;edgeStyle=orthogonalEdgeStyle;" edge="1" parent="1" source="cudnkLG5wgGD3ugbKX4R-2" target="cudnkLG5wgGD3ugbKX4R-1">
          <mxGeometry width="50" height="50" relative="1" as="geometry">
            <mxPoint x="310" y="230" as="sourcePoint" />
            <mxPoint x="310" y="270" as="targetPoint" />
          </mxGeometry>
        </mxCell>
        <mxCell id="cudnkLG5wgGD3ugbKX4R-11" value="Branch&lt;br&gt;Unit" style="rounded=0;whiteSpace=wrap;html=1;sketch=1;curveFitting=1;jiggle=2;fontSize=22;verticalAlign=top;fillStyle=solid;fillColor=#e1d5e7;strokeColor=#9673a6;" vertex="1" parent="1">
          <mxGeometry x="430" y="220" width="160" height="140" as="geometry" />
        </mxCell>
        <mxCell id="cudnkLG5wgGD3ugbKX4R-12" value="" style="endArrow=classic;html=1;rounded=0;sketch=1;curveFitting=1;jiggle=2;entryX=0.5;entryY=1;entryDx=0;entryDy=0;exitX=1;exitY=0.5;exitDx=0;exitDy=0;edgeStyle=orthogonalEdgeStyle;" edge="1" parent="1" source="cudnkLG5wgGD3ugbKX4R-5" target="cudnkLG5wgGD3ugbKX4R-11">
          <mxGeometry width="50" height="50" relative="1" as="geometry">
            <mxPoint x="310" y="430" as="sourcePoint" />
            <mxPoint x="310" y="470" as="targetPoint" />
          </mxGeometry>
        </mxCell>
        <mxCell id="cudnkLG5wgGD3ugbKX4R-13" value="BTB" style="rounded=0;whiteSpace=wrap;html=1;sketch=1;curveFitting=1;jiggle=2;fontSize=22;fillStyle=solid;" vertex="1" parent="1">
          <mxGeometry x="450" y="290" width="120" height="60" as="geometry" />
        </mxCell>
        <mxCell id="cudnkLG5wgGD3ugbKX4R-14" value="" style="endArrow=classic;html=1;rounded=0;sketch=1;curveFitting=1;jiggle=2;entryX=1;entryY=0.5;entryDx=0;entryDy=0;exitX=0.5;exitY=0;exitDx=0;exitDy=0;edgeStyle=orthogonalEdgeStyle;" edge="1" parent="1" source="cudnkLG5wgGD3ugbKX4R-11" target="cudnkLG5wgGD3ugbKX4R-2">
          <mxGeometry width="50" height="50" relative="1" as="geometry">
            <mxPoint x="370" y="400" as="sourcePoint" />
            <mxPoint x="520" y="370" as="targetPoint" />
          </mxGeometry>
        </mxCell>
        <mxCell id="cudnkLG5wgGD3ugbKX4R-15" value="" style="endArrow=classic;html=1;rounded=0;sketch=1;curveFitting=1;jiggle=2;exitX=0;exitY=0.5;exitDx=0;exitDy=0;edgeStyle=orthogonalEdgeStyle;" edge="1" parent="1" source="cudnkLG5wgGD3ugbKX4R-11" target="cudnkLG5wgGD3ugbKX4R-3">
          <mxGeometry width="50" height="50" relative="1" as="geometry">
            <mxPoint x="520" y="227" as="sourcePoint" />
            <mxPoint x="370" y="200" as="targetPoint" />
          </mxGeometry>
        </mxCell>
        <mxCell id="cudnkLG5wgGD3ugbKX4R-16" value="EU #1" style="rounded=0;whiteSpace=wrap;html=1;sketch=1;curveFitting=1;jiggle=2;fontSize=22;fillStyle=solid;" vertex="1" parent="1">
          <mxGeometry x="175" y="504.5" width="120" height="60" as="geometry" />
        </mxCell>
        <mxCell id="cudnkLG5wgGD3ugbKX4R-17" value="EU #2" style="rounded=0;whiteSpace=wrap;html=1;sketch=1;curveFitting=1;jiggle=2;fontSize=22;fillStyle=solid;" vertex="1" parent="1">
          <mxGeometry x="305" y="504.5" width="120" height="60" as="geometry" />
        </mxCell>
        <mxCell id="cudnkLG5wgGD3ugbKX4R-18" value="Control&lt;br&gt;Unit" style="rounded=0;whiteSpace=wrap;html=1;sketch=1;curveFitting=1;jiggle=2;fontSize=22;fillStyle=solid;fillColor=#FF99FF;strokeColor=#FF33FF;" vertex="1" parent="1">
          <mxGeometry x="240" y="360" width="120" height="60" as="geometry" />
        </mxCell>
        <mxCell id="cudnkLG5wgGD3ugbKX4R-19" value="" style="endArrow=classic;html=1;rounded=0;sketch=1;curveFitting=1;jiggle=2;entryX=0.5;entryY=0;entryDx=0;entryDy=0;exitX=0.5;exitY=1;exitDx=0;exitDy=0;" edge="1" parent="1" source="cudnkLG5wgGD3ugbKX4R-18" target="cudnkLG5wgGD3ugbKX4R-5">
          <mxGeometry width="50" height="50" relative="1" as="geometry">
            <mxPoint x="310" y="330" as="sourcePoint" />
            <mxPoint x="310" y="370" as="targetPoint" />
          </mxGeometry>
        </mxCell>
        <mxCell id="cudnkLG5wgGD3ugbKX4R-20" value="L1D #1" style="rounded=0;whiteSpace=wrap;html=1;sketch=1;curveFitting=1;jiggle=2;fontSize=22;fillStyle=solid;" vertex="1" parent="1">
          <mxGeometry x="-100" y="380" width="120" height="60" as="geometry" />
        </mxCell>
        <mxCell id="cudnkLG5wgGD3ugbKX4R-21" value="" style="endArrow=classic;html=1;rounded=0;exitX=0;exitY=0.5;exitDx=0;exitDy=0;sketch=1;curveFitting=1;jiggle=2;entryX=0.5;entryY=1;entryDx=0;entryDy=0;edgeStyle=orthogonalEdgeStyle;" edge="1" parent="1" source="cudnkLG5wgGD3ugbKX4R-5" target="cudnkLG5wgGD3ugbKX4R-1">
          <mxGeometry width="50" height="50" relative="1" as="geometry">
            <mxPoint x="250" y="200" as="sourcePoint" />
            <mxPoint x="100" y="360" as="targetPoint" />
          </mxGeometry>
        </mxCell>
        <mxCell id="cudnkLG5wgGD3ugbKX4R-22" value="L1D #2" style="rounded=0;whiteSpace=wrap;html=1;sketch=1;curveFitting=1;jiggle=2;fontSize=22;fillStyle=solid;" vertex="1" parent="1">
          <mxGeometry x="40" y="380" width="120" height="60" as="geometry" />
        </mxCell>
        <mxCell id="cudnkLG5wgGD3ugbKX4R-23" value="L3" style="rounded=0;whiteSpace=wrap;html=1;sketch=1;curveFitting=1;jiggle=2;fontSize=22;fillStyle=solid;" vertex="1" parent="1">
          <mxGeometry x="40" y="310" width="120" height="60" as="geometry" />
        </mxCell>
      </root>
    </mxGraphModel>
  </diagram>
</mxfile>
